<?xml version="1.0" encoding="UTF-8" standalone="no"?>
<svg
   xmlns:dc="http://purl.org/dc/elements/1.1/"
   xmlns:cc="http://creativecommons.org/ns#"
   xmlns:rdf="http://www.w3.org/1999/02/22-rdf-syntax-ns#"
   xmlns:svg="http://www.w3.org/2000/svg"
   xmlns="http://www.w3.org/2000/svg"
   xmlns:sodipodi="http://sodipodi.sourceforge.net/DTD/sodipodi-0.dtd"
   xmlns:inkscape="http://www.inkscape.org/namespaces/inkscape"
   height="100px"
   width="100px"
   fill="#000000"
   xml:space="preserve"
   version="1.1"
   style="shape-rendering:geometricPrecision;text-rendering:geometricPrecision;image-rendering:optimizeQuality;"
   viewBox="0 0 369 462"
   x="0px"
   y="0px"
   fill-rule="evenodd"
   clip-rule="evenodd"
   id="svg18"
   sodipodi:docname="copy-note.svg"
   inkscape:version="0.92.3 (2405546, 2018-03-11)"><metadata
     id="metadata22"><rdf:RDF><cc:Work
         rdf:about=""><dc:format>image/svg+xml</dc:format><dc:type
           rdf:resource="http://purl.org/dc/dcmitype/StillImage" /></cc:Work></rdf:RDF></metadata><sodipodi:namedview
     pagecolor="#ffffff"
     bordercolor="#666666"
     borderopacity="1"
     objecttolerance="10"
     gridtolerance="10"
     guidetolerance="10"
     inkscape:pageopacity="0"
     inkscape:pageshadow="2"
     inkscape:window-width="1327"
     inkscape:window-height="840"
     id="namedview20"
     showgrid="false"
     inkscape:zoom="2.36"
     inkscape:cx="50"
     inkscape:cy="50"
     inkscape:window-x="67"
     inkscape:window-y="27"
     inkscape:window-maximized="0"
     inkscape:current-layer="svg18" /><defs
     id="defs4"><style
       type="text/css"
       id="style2">
   
    .fil0 {fill:#000000;fill-rule:nonzero}
   
  </style></defs><g
     id="g16"
     transform="matrix(0.86440678,0,0,0.86440678,25.016949,31.322034)"><path
       class="fil0"
       d="M 64,50 V 32 h 34 c 2,-8 5,-15 11,-20 15,-16 41,-16 56,0 6,5 9,12 11,20 h 35 v 18 h 63 v 95 h 95 V 462 H 95 V 367 H 0 V 50 Z m 190,95 V 70 H 211 V 94 H 64 V 70 H 20 V 347 H 95 V 145 Z m 95,20 H 115 V 442 H 349 Z M 84,52 V 74 H 191 V 52 h -35 c 1,-10 3,-19 -5,-26 -8,-8 -20,-8 -28,0 -8,7 -6,17 -5,26 z"
       id="path6"
       inkscape:connector-curvature="0"
       style="fill:#000000;fill-rule:nonzero" /><polygon
       class="fil0"
       points="295,226 168,226 168,206 295,206 "
       id="polygon8"
       style="fill:#000000;fill-rule:nonzero" /><polygon
       class="fil0"
       points="295,284 168,284 168,264 295,264 "
       id="polygon10"
       style="fill:#000000;fill-rule:nonzero" /><polygon
       class="fil0"
       points="295,342 168,342 168,322 295,322 "
       id="polygon12"
       style="fill:#000000;fill-rule:nonzero" /><polygon
       class="fil0"
       points="295,400 168,400 168,380 295,380 "
       id="polygon14"
       style="fill:#000000;fill-rule:nonzero" /></g></svg>