<?xml version="1.0" encoding="UTF-8" standalone="no"?>
<svg
   xmlns:dc="http://purl.org/dc/elements/1.1/"
   xmlns:cc="http://creativecommons.org/ns#"
   xmlns:rdf="http://www.w3.org/1999/02/22-rdf-syntax-ns#"
   xmlns:svg="http://www.w3.org/2000/svg"
   xmlns="http://www.w3.org/2000/svg"
   xmlns:sodipodi="http://sodipodi.sourceforge.net/DTD/sodipodi-0.dtd"
   xmlns:inkscape="http://www.inkscape.org/namespaces/inkscape"
   height="100px"
   width="100px"
   fill="#000000"
   version="1.1"
   x="0px"
   y="0px"
   viewBox="0 0 100 100"
   style="enable-background:new 0 0 100 100;"
   xml:space="preserve"
   id="svg84"
   sodipodi:docname="notes-nv.svg"
   inkscape:version="0.92.3 (2405546, 2018-03-11)"><metadata
     id="metadata90"><rdf:RDF><cc:Work
         rdf:about=""><dc:format>image/svg+xml</dc:format><dc:type
           rdf:resource="http://purl.org/dc/dcmitype/StillImage" /><dc:title></dc:title></cc:Work></rdf:RDF></metadata><defs
     id="defs88" /><sodipodi:namedview
     pagecolor="#ffffff"
     bordercolor="#666666"
     borderopacity="1"
     objecttolerance="10"
     gridtolerance="10"
     guidetolerance="10"
     inkscape:pageopacity="0"
     inkscape:pageshadow="2"
     inkscape:window-width="1853"
     inkscape:window-height="1016"
     id="namedview86"
     showgrid="false"
     inkscape:zoom="2.920351"
     inkscape:cx="-59.218197"
     inkscape:cy="44.489643"
     inkscape:window-x="67"
     inkscape:window-y="27"
     inkscape:window-maximized="1"
     inkscape:current-layer="svg84" /><path
     id="path176"
     d="m 63.679533,54.125938 c -0.04122,-0.06595 -0.09,-0.122966 -0.140142,-0.179985 C 62.993254,40.693014 56.552266,31.429284 53.250021,27.514268 l -2.769845,-3.661527 c 0,0 -1.945487,2.542459 -2.699088,3.512455 -3.268583,3.836702 -9.887496,13.201416 -10.41852,26.653576 -0.02816,0.03504 -0.05977,0.06663 -0.08312,0.107168 -0.230821,0.362718 -4.89875,7.911096 -5.337722,19.343576 0.09343,1.689247 0.395692,4.877455 1.386297,6.690357 l 4.332691,-7.016666 0.02062,0.212273 c 0.715817,-1.305235 1.474228,-2.507425 2.208594,-3.381246 0.588042,1.302488 1.291495,2.547957 2.11448,3.719233 0.203341,0.287151 0.502858,0.492554 0.843593,0.575678 1.327904,0.324933 2.677106,0.560564 4.03661,0.712382 0.127775,0.768715 0.283717,1.522315 0.456831,2.262177 l 0.03778,-0.05564 3.076919,5.646169 3.071424,-5.646169 c 0,0 0.01101,0.04603 0.02473,0.110601 0.179987,-0.760471 0.34211,-1.536055 0.472633,-2.326753 1.359505,-0.15182 2.707332,-0.378517 4.034548,-0.702765 0.34211,-0.08175 0.642314,-0.287152 0.844281,-0.574304 0.832602,-1.185703 1.541551,-2.440788 2.131654,-3.758388 0.732992,0.860767 1.491403,2.052653 2.207907,3.353078 l 0.01442,-0.146323 4.332692,7.016665 c 1.076476,-1.972278 1.339583,-5.57129 1.404845,-7.096353 C 68.461501,61.861171 63.906919,54.485223 63.679534,54.125939 Z M 34.915597,72.341516 c 0.351727,-4.979125 1.538116,-9.114658 2.648253,-12.021896 0.157314,1.523002 0.38676,3.083101 0.715817,4.68854 0.136706,0.671851 0.308447,1.329278 0.500111,1.977085 -1.426827,1.24547 -2.765037,3.305679 -3.864181,5.356271 z M 55.949796,36.716858 c 0.477441,0.906107 0.936335,1.897399 1.381488,2.926472 H 43.577545 c 0.444466,-1.029073 0.904734,-2.019678 1.381488,-2.926472 z M 50.455446,77.7287 C 48.714675,71.661421 49.099375,63.141674 49.27455,60.481057 c 0.351728,-0.132584 0.780394,-0.245933 1.180896,-0.245933 0.375082,0 0.815428,0.122966 1.179519,0.25555 0.175863,2.674356 0.555755,11.180364 -1.179519,17.238026 z m 9.323496,-13.303774 c -0.533772,2.597416 -1.524376,5.000421 -2.947769,7.144441 -0.796193,0.179985 -1.605438,0.309134 -2.413997,0.4163 0.615521,-6.23421 0.09,-12.206688 0.05153,-12.601008 -0.04396,-0.476067 -0.320126,-0.901986 -0.737801,-1.134867 -0.171741,-0.09411 -1.702989,-0.927403 -3.27614,-0.927403 -1.659021,0 -3.14218,0.848402 -3.306366,0.944577 -0.401874,0.238377 -0.667043,0.654678 -0.708948,1.119753 -0.03641,0.393632 -0.564685,6.37092 0.05496,12.609939 -0.811999,-0.109231 -1.617122,-0.247993 -2.417438,-0.427978 -1.423392,-2.142646 -2.413995,-4.544964 -2.948456,-7.144442 -1.784736,-8.696296 -0.68353,-16.098351 1.351949,-21.956105 h 15.94722 c 2.035479,5.859129 3.137372,13.260496 1.351261,21.956793 z m 2.358353,2.522536 c 0.186167,-0.637504 0.353787,-1.279817 0.490494,-1.939302 0.335926,-1.645971 0.567432,-3.241791 0.72406,-4.799142 1.122503,2.912047 2.336371,7.088798 2.691532,12.132498 -1.108075,-2.070514 -2.464833,-4.151333 -3.906086,-5.394054 z"
     inkscape:connector-curvature="0"
     style="opacity:1;fill:#000000;fill-opacity:1;fill-rule:nonzero;stroke:none;stroke-width:0.68696553;stroke-opacity:1" /><g
     style="fill:#000000"
     id="g1112"
     transform="matrix(1.0985416,0,0,1.0985416,-4.3161204,-5.290279)"><g
       id="g1100"
       transform="translate(0,-952.36218)"><path
         id="path1098"
         overflow="visible"
         display="inline"
         visibility="visible"
         marker="none"
         style="color:#000000;text-indent:0;text-transform:none;direction:ltr;baseline-shift:baseline;display:inline;overflow:visible;visibility:visible;fill:#000000;fill-opacity:1;stroke:none;enable-background:accumulate"
         d="m 17.999998,959.36217 v 2 82.00003 2 h 2 60.000003 2 v -2 c 0,-21.6146 0,-43.2292 0,-64.8438 -6.385099,-6.38566 -12.7714,-12.77025 -19.156203,-19.15623 -14.2813,0 -28.5625,0 -42.8438,0 z m 4,4 h 38 v 16.00003 2 h 2 16.000003 v 60 H 21.999998 Z m 42,2.8125 11.187503,11.18753 H 63.999998 Z"
         inkscape:connector-curvature="0" /></g></g></svg>